<svg width="102" height="108" viewBox="0 0 102 108" fill="none" xmlns="http://www.w3.org/2000/svg">
<g clip-path="url(#clip0_1876_192)">
<path d="M101.571 29.1931V108H0V0H101.571V29.1931ZM13.725 71.9968C14.1441 74.4542 15.649 75.3971 18.0397 74.6447C18.6493 74.4161 19.2874 74.1494 20.0018 73.8922C20.6399 73.5112 21.3257 73.1398 22.04 72.7207C22.6496 72.3397 23.2116 72.0063 23.8973 71.6254C24.5736 71.1301 25.2594 70.6062 26.0118 70.0728C26.6404 69.5395 27.2691 69.0156 27.9072 68.4822C29.8598 66.1487 31.8123 63.8151 33.7649 61.4911C34.2602 61.9864 34.6316 62.396 35.0888 62.8913C33.6506 65.3867 31.3837 67.0154 29.155 68.9394C32.26 69.168 34.6411 67.806 37.0223 65.9868C35.6984 73.016 33.6601 79.5594 30.4408 85.8361C31.879 85.798 33.0505 85.1599 34.3364 84.5884C33.5839 92.0748 31.2313 99.0373 28.1739 105.8C31.7266 106.295 34.0697 104.59 36.0794 101.942C36.0413 102.514 36.0032 102.847 35.9651 103.457C36.7175 102.885 37.4033 102.438 37.9653 101.904C39.8607 100.199 41.2513 98.0467 42.4609 95.8561C45.1849 90.9033 47.1089 85.6456 48.7757 80.2737C49.4901 77.9688 50.4044 75.7019 50.4806 72.9779C50.7473 73.2827 50.9378 73.4351 51.0521 73.616C51.4331 74.1875 51.6903 74.8256 52.1475 75.359C52.5284 75.8543 53.0523 76.2258 53.7762 76.2258C53.8524 76.0353 53.8905 75.8829 53.9286 75.7305C54.8334 72.1778 56.3859 68.8823 58.3861 65.8249C62.5484 59.51 67.8727 54.4048 74.0446 50.0901C76.8068 48.1662 79.1879 45.966 80.3214 42.68C80.3976 42.4133 80.5881 42.1847 80.7785 41.8132C81.531 43.8515 82.9692 44.4611 84.8646 44.3087C84.7122 44.5754 84.5598 44.804 84.4455 45.023C83.8074 46.2707 84.2932 47.1756 85.7314 47.2518C87.5506 47.328 89.1698 46.7565 90.5699 45.6231C92.532 43.9563 93.6368 41.7656 94.3512 39.3463C94.5036 38.8891 94.6941 38.7082 95.1036 38.5558C96.7323 37.9843 97.942 36.889 98.1706 35.1174C98.323 34.022 98.2087 32.8886 97.9801 31.7933C97.3419 28.6882 95.7894 25.9737 94.1988 23.2878C92.2748 19.9637 89.4365 17.6873 85.8457 16.3348C81.1214 14.5537 76.2448 14.5537 71.3206 15.2775C70.3776 15.4299 69.4252 15.6204 68.3679 15.8109C69.73 13.7726 71.0158 11.8391 72.4159 9.72467C69.73 8.93412 67.2345 8.09595 64.6628 7.4959C55.243 5.26713 45.6802 4.58136 36.0794 4.61945C35.8127 4.61945 35.4412 4.80995 35.2888 5.03854C34.2316 6.62916 33.1744 8.21025 32.2219 9.83896C31.6885 10.7438 31.3932 11.7629 30.9742 12.7535C30.8599 12.4868 30.7456 12.2201 30.6313 12.0011C29.574 9.77229 28.0596 7.87689 26.0213 6.43866C25.6023 6.17197 25.2689 6.05768 24.7736 6.24817C23.8688 6.59106 22.9544 6.81965 22.0496 7.11491C16.7539 8.97222 11.7629 11.3915 7.4578 15.0966C5.60049 16.6872 4.0194 18.4969 2.84787 20.6971C3.03836 20.7733 3.15266 20.8114 3.30505 20.8495C5.45762 21.4209 7.65782 21.9448 9.77229 22.6306C12.7249 23.5735 15.5157 24.7831 17.9825 26.7166C18.554 27.1738 19.0779 27.7358 19.6113 28.2692C12.4678 32.9172 8.00071 39.3844 5.42905 47.3661C8.75315 47.6709 11.9725 47.9757 15.3728 48.2709C14.9918 48.8805 14.8394 49.5187 14.4298 49.8234C13.6393 50.3568 13.7917 50.9188 14.087 51.5665C14.1632 51.7569 14.2394 51.9855 14.3155 52.176C14.6965 53.2714 14.8108 53.3095 15.9062 52.9285C17.2301 52.4713 19.0112 52.8142 19.7255 53.7952C19.9541 54.1 20.0684 54.5858 19.9922 54.8906C19.916 55.1572 19.3827 55.3858 19.0874 55.3858C18.5159 55.4239 17.9159 55.3096 17.3063 55.1953C16.7729 55.1191 16.4014 55.2715 16.1729 55.8049C15.9824 56.2621 15.6014 56.6336 15.4204 57.0527C15.3252 57.2717 15.2204 57.5956 15.2299 57.9956C15.249 58.6623 15.5823 58.8242 15.7633 59.51C15.8585 59.8815 15.8014 60.0053 15.6966 61.2435C15.6585 61.6721 15.6109 62.2912 15.5728 63.0627C15.3823 63.8152 15.1918 64.5771 14.9347 65.4058C14.668 66.1201 14.4394 66.844 14.1441 67.6345C14.0298 68.2727 13.9155 68.9204 13.7631 69.6728C13.7631 70.4634 13.8012 71.1872 13.7631 72.0159L13.725 71.9968Z" fill="white"/>
<path d="M97.9801 31.9171C97.2943 28.8121 95.7894 26.088 94.1988 23.4021C92.2272 20.078 89.4365 17.773 85.8362 16.4491C81.1119 14.668 76.2353 14.668 71.3206 15.3919C70.3777 15.5442 69.4252 15.7347 68.368 15.9157C69.73 13.8774 71.0158 11.9535 72.4159 9.82945C69.73 9.07701 67.2345 8.21026 64.6629 7.60069C55.2906 5.37192 45.7184 4.72424 36.0794 4.72424C35.8127 4.72424 35.4317 4.91474 35.2793 5.14333C34.2221 6.69585 33.1649 8.27694 32.2219 9.94375C31.7266 10.8105 31.3838 11.8392 30.9742 12.8583C30.8599 12.5535 30.7456 12.3249 30.6313 12.0963C29.5741 9.86755 28.0597 7.98167 26.0214 6.54345C25.6404 6.27676 25.2594 6.16247 24.7736 6.35296C23.8593 6.65775 22.9544 6.92444 22.0496 7.2197C16.7539 9.11511 11.7249 11.4963 7.44831 15.2014C5.60053 16.792 4.00991 18.6017 2.83838 20.8019C3.02887 20.8685 3.14317 20.9066 3.29556 20.9447C5.44813 21.5543 7.6388 22.0496 9.7628 22.7258C12.7059 23.6307 15.5443 24.8403 17.9635 26.8119C18.535 27.2596 19.0208 27.831 19.5922 28.3644C12.4011 33.0125 7.98169 39.4797 5.41003 47.4518C8.73414 47.7566 11.9535 48.0614 15.3538 48.3662C15.0109 49.0043 14.8299 49.652 14.4108 49.9187C13.6203 50.4426 13.7632 51.014 14.0679 51.6522C14.1441 51.8427 14.2203 52.0713 14.2965 52.2618C14.6394 53.3571 14.7918 53.3952 15.8871 53.0142C17.2492 52.557 18.9827 52.8999 19.7065 53.881C19.9351 54.1857 20.078 54.681 19.9637 54.9858C19.897 55.243 19.4017 55.4716 19.0589 55.4716C18.4588 55.5097 17.8492 55.3573 17.2873 55.2811C16.7158 55.2049 16.3729 55.3192 16.1538 55.8907C15.9633 56.3002 15.6205 56.6812 15.3919 57.1384C15.2395 57.4051 15.1252 57.7765 15.2014 58.0813C15.3157 58.5385 15.5824 58.9862 15.7729 59.4434C15.8871 59.5196 16.0395 59.5957 16.0395 59.8624C16.5253 60.8054 17.2111 61.4435 18.1921 61.9007C18.535 62.0912 18.7541 62.4722 19.097 62.6913C20.459 63.6818 21.8591 64.5867 23.2211 65.5677C24.4689 66.4725 25.7166 67.425 26.9643 68.3298C27.1929 68.4822 27.4596 68.5203 27.793 68.5965C30.2122 66.5868 32.1457 64.2438 33.7744 61.5959C34.2602 62.1293 34.6412 62.5484 35.0984 62.996C33.622 65.4915 31.3457 67.1202 29.155 69.0442C32.26 69.2347 34.6412 67.9108 37.0223 66.1011C35.6984 73.0922 33.6601 79.6737 30.4408 85.9505C31.879 85.9124 33.0506 85.2742 34.3364 84.7027C33.5458 92.1891 31.2028 99.1516 28.1739 105.914C31.7266 106.409 34.0697 104.704 36.0794 102.057C36.0413 102.628 36.0032 103.009 35.9651 103.571C36.7176 103.009 37.3652 102.552 37.9653 102.019C39.8607 100.323 41.2608 98.1992 42.4704 95.9704C45.1945 91.0557 47.1185 85.76 48.7853 80.3881C49.4996 78.0831 50.4045 75.8162 50.4807 73.0922C50.7474 73.397 50.9379 73.5494 51.0522 73.7399C51.4331 74.3018 51.7284 74.9495 52.1475 75.4733C52.5285 75.9686 53.0523 76.3496 53.7762 76.3496C53.8143 76.1591 53.8905 76.0067 53.9286 75.8543C54.8334 72.3016 56.386 69.0061 58.3861 65.9487C62.5484 59.6338 67.8822 54.5286 74.0447 50.214C76.8068 48.29 79.188 46.0612 80.3214 42.8038C80.4357 42.5371 80.5881 42.2799 80.7691 41.937C81.531 43.9753 82.9312 44.5849 84.8551 44.4325C84.7027 44.6992 84.5503 44.9183 84.4456 45.1469C83.7979 46.3946 84.2932 47.309 85.7219 47.3851C87.5411 47.4518 89.1698 46.928 90.5699 45.7564C92.532 44.0896 93.6273 41.899 94.3512 39.4797C94.5036 39.0606 94.6846 38.832 95.1037 38.6796C96.7324 38.0796 97.942 37.0223 98.1706 35.2412C98.2849 34.1459 98.2087 32.9744 97.9801 31.9171ZM69.4252 16.4872C70.9015 16.3348 72.3778 16.1062 73.9685 15.8776C73.397 16.3729 72.835 16.8301 72.3397 17.3158C68.4061 21.2114 64.8153 25.3737 62.3579 30.3646C61.4912 32.0695 60.7292 33.803 59.3291 35.165C58.5004 36.0032 57.5956 36.7556 56.7193 37.5081C56.1574 37.8891 55.624 38.2701 55.1382 38.6415C54.6048 38.9463 54.2239 39.213 53.8143 39.4797C53.319 39.7083 52.938 39.9654 52.5285 40.194C52.1094 40.4607 51.7284 40.6893 51.395 40.9179C51.0522 41.0989 50.7855 41.2894 50.5188 41.4799C50.0711 41.7466 49.6901 42.0132 49.3091 42.3561C49.1948 42.3847 49.1567 42.3847 49.1567 42.4228C49.052 42.499 49.052 42.5371 49.0139 42.5752C46.9661 44.2801 45.004 46.0231 43.1086 47.6423C43.8706 45.1088 44.623 42.4609 45.4136 39.8226C45.6041 39.213 45.7183 38.7177 45.8326 38.232C45.9469 37.8891 46.0231 37.6605 46.0612 37.3938C46.2136 36.8318 46.2898 36.3747 46.4041 35.927C46.5851 35.3936 46.6994 34.9364 46.8137 34.5269C47.0042 33.9554 47.1185 33.4696 47.2709 32.9744C47.4233 32.3648 47.5757 31.9171 47.7281 31.4599C48.5948 28.9264 49.8806 26.7357 51.395 24.6879C54.681 20.2685 59.11 17.773 64.5105 16.9444C66.1392 16.6777 67.806 16.6777 69.4252 16.4872ZM44.623 38.0796C44.6992 38.8701 44.3182 39.0606 43.6039 39.0987C37.1747 39.3273 31.5742 37.1366 26.6214 33.2029C24.8117 31.7647 23.2211 30.0598 21.5162 28.5073C21.5162 28.4025 21.5543 28.3263 21.5543 28.212C23.2973 27.3358 25.0689 26.469 26.85 25.5642C27.1929 26.1261 27.4596 26.5833 27.7549 27.0405C31.9171 33.0886 37.67 36.527 44.623 38.0796ZM28.1739 25.2213C28.5549 25.0689 28.8883 24.9546 29.1931 24.8403C29.8789 24.6212 30.4789 24.4307 31.0504 24.2403C34.0697 23.2973 37.0223 22.802 40.0512 22.4972C43.4134 22.1924 46.7375 22.1544 50.1092 22.4972C50.5569 22.5353 50.976 22.6115 51.395 22.6496C50.595 23.8593 49.6139 24.9546 49.0139 26.2023C47.909 28.3644 47.0423 30.6313 46.0993 32.8601C45.9469 33.241 45.8326 33.6125 45.6803 33.9935C45.5279 34.6031 45.4136 35.0888 45.2612 35.5841C45.1564 35.9651 45.0421 36.2604 44.9659 36.5651C44.9659 37.0223 44.8135 37.1366 44.4706 37.0223C44.0515 36.908 43.6039 36.7937 43.1848 36.6794C42.3942 36.4128 41.7085 36.1842 41.0322 35.9651C40.4988 35.7365 40.0512 35.546 39.594 35.3555C39.5178 35.3174 39.4416 35.3174 39.4416 35.3174L39.4035 35.2793C39.4035 35.2793 39.4035 35.2412 39.2892 35.2793C37.289 34.4888 35.546 33.241 33.8792 31.9171C33.4316 31.5361 33.0125 31.1551 32.6029 30.7837C32.0695 30.1741 31.5361 29.6883 31.0504 29.1931C30.6313 28.6216 30.2503 28.212 29.8789 27.7548C29.536 27.1834 29.1931 26.7738 28.8502 26.3166C28.6311 25.9356 28.4406 25.6404 28.1739 25.2213ZM9.38181 21.0209C8.61984 20.7638 7.86739 20.5733 7.11495 20.3828C6.20058 20.1923 5.37194 20.0399 4.429 19.8494C4.95285 19.2874 5.37194 18.7922 5.79102 18.335C6.35297 17.773 6.88635 17.2015 7.37211 16.6396C8.09598 16.1062 8.69604 15.5823 9.34371 15.049C10.2486 14.4489 11.0105 13.8774 11.8011 13.306C12.8964 12.6678 13.9155 12.0582 14.9347 11.4582C16.2586 10.8105 17.4682 10.2485 18.6874 9.63896C20.459 9.00081 22.202 8.42933 23.8593 7.79118C24.8498 7.41019 25.6404 7.48639 26.3166 8.31504C26.7357 8.77222 27.1167 9.11511 27.4215 9.45799C27.6787 9.79136 27.9073 10.058 28.1358 10.3247C28.4406 10.8105 28.7454 11.1915 29.0026 11.6106C29.2312 12.0582 29.4217 12.4011 29.6122 12.744C29.8789 13.2774 30.0979 13.725 30.3265 14.1822C30.5551 14.8204 30.7837 15.3918 31.0123 15.9157C31.1266 15.9157 31.2028 15.8395 31.279 15.7728C31.5361 15.049 31.6885 14.3727 31.879 13.6869C31.9044 13.6107 31.9171 13.5599 31.9171 13.5345C31.9171 13.4202 31.9552 13.3821 31.9933 13.3441C32.1838 13.0107 32.2981 12.6678 32.4124 12.363C32.6029 12.0201 32.7077 11.763 32.822 11.4963C33.0506 11.1534 33.1649 10.8867 33.2792 10.6295C33.5458 10.1723 33.7744 9.82946 33.9554 9.45799C34.2983 8.92461 34.6031 8.46743 34.8698 8.01977C35.4698 7.2578 35.927 6.54345 36.489 5.85768C36.6033 5.70528 36.9842 5.70528 37.2128 5.70528C39.8226 5.74338 42.3942 5.81958 45.004 5.85768C45.3755 5.89578 45.566 5.89578 45.7945 5.89578C45.8707 5.97197 45.9469 5.97197 45.9469 5.97197C47.5376 6.04817 49.0806 6.16247 50.595 6.27676C51.8808 6.42916 53.0523 6.54345 54.1858 6.69585C55.1001 6.81014 55.8907 6.92444 56.6812 7.02921C57.8242 7.2578 58.9195 7.44829 59.9768 7.60069C60.9959 7.82928 61.9769 7.98167 62.9294 8.13407C64.6248 8.50553 66.1773 8.92461 67.7298 9.3056C68.7489 9.63896 69.6919 9.90565 70.7491 10.1723C70.4158 10.7724 70.1491 11.2296 69.8443 11.6868C69.1299 12.8202 68.368 13.9155 67.6917 15.049C67.3107 15.6966 66.8535 15.8776 66.1392 15.8776C61.9388 15.8395 58.1194 17.0587 54.6429 19.4398C54.0048 19.8875 53.3952 20.3447 52.8618 20.8685C52.4142 21.2876 51.957 21.3638 51.4331 21.2876C50.1092 21.1352 48.8234 21.0209 47.5376 20.8685H41.6704C35.4698 21.2495 29.6503 22.4591 24.2022 25.2594C23.2211 25.7928 22.2401 26.4309 21.2876 27.0405C20.9543 27.2596 20.7257 27.3358 20.3828 27.0024C17.2492 24.0879 13.4298 22.3067 9.38181 21.0209ZM18.8303 30.2884C19.2494 29.7931 19.8589 29.4598 20.3828 29.0788C20.459 29.0407 20.7638 29.2693 20.8781 29.4217C22.6497 31.5361 24.6594 33.3934 26.8881 34.9745C27.9835 35.7746 29.1169 36.4128 30.2503 37.1366C31.7266 37.7748 33.1268 38.3844 34.5269 38.9844C35.927 39.2892 37.2128 39.5559 38.5368 39.8226C40.4607 39.8893 42.3181 39.8893 44.1277 39.8893C44.1277 40.8417 44.0134 40.956 43.1086 41.0703C42.1657 41.1751 41.1846 41.2894 40.2322 41.4037C39.2892 41.518 38.4606 41.5942 37.5938 41.5942C36.9842 41.5561 36.5271 41.5942 36.0413 41.5942C35.6222 41.9751 35.3174 42.2799 35.0222 42.6133C34.5269 43.0324 34.1459 43.3753 33.7363 43.7467C33.0125 44.1277 32.4505 44.4706 31.8409 44.8516C31.2028 45.0707 30.6694 45.2612 30.136 45.4516C29.3836 45.6421 28.7835 45.8326 28.1358 46.0231C26.4309 46.2422 25.2213 45.5278 24.0498 44.623C22.8782 43.7467 21.6305 42.9562 20.3828 42.1656C19.5541 41.5942 19.2874 40.7655 19.1351 39.8512C19.097 39.1749 19.0208 38.5653 18.9827 38.0034C19.0208 37.1747 19.0208 36.4889 19.0589 35.8127C19.2874 35.0507 19.4779 34.3364 19.6303 33.6506C19.9351 33.0125 19.6303 32.5553 19.3255 32.1076C19.1732 31.9171 19.097 31.6504 18.9827 31.4218C18.9065 30.9742 18.6874 30.4408 18.8303 30.2884ZM32.1076 55.3573C31.879 55.0525 31.6885 54.8715 31.498 54.681C29.8789 54.7953 28.4025 54.7572 27.1167 53.8048C26.5452 53.3952 26.0595 52.938 25.5261 52.4808C25.0689 51.8808 24.6974 51.3855 24.2784 50.8997C24.0879 50.4807 23.9355 50.1378 23.7831 49.8044C22.6496 48.0614 20.9543 47.7947 19.1732 47.6423C17.9635 47.4899 16.8301 47.347 15.7348 47.2328C14.4489 47.0804 13.2393 46.9661 12.0297 46.8137C10.2486 46.6232 8.61984 46.4327 6.88635 46.2422C7.11495 45.6802 7.30544 45.185 7.48641 44.6992C7.6388 44.4325 7.715 44.2039 7.86739 43.9372C8.09599 43.5277 8.28648 43.1467 8.43887 42.7657C8.61984 42.4228 8.73414 42.1656 8.84843 41.899C9.00083 41.6323 9.11512 41.4418 9.19132 41.2513C9.38181 40.9179 9.53421 40.6131 9.6866 40.3464C9.94377 40.0035 10.0962 39.6702 10.2867 39.3654C10.439 39.1749 10.5152 39.0606 10.5914 38.9082C12.5154 35.8127 14.9347 33.241 17.7349 30.9742C18.0016 31.6885 18.3445 32.3648 18.5731 33.0887C18.6493 33.3172 18.6112 33.6125 18.535 33.8411C17.9254 36.0699 17.6587 38.3463 18.2683 40.6131C18.4588 41.2513 18.716 41.8228 18.9446 42.4228C19.097 42.6895 19.1732 42.8419 19.2874 42.9943C19.6303 43.5277 20.0018 43.9372 20.3447 44.3944C22.3925 46.2422 24.6974 47.1566 27.3453 47.1947H27.8311C28.0597 47.1947 28.1739 47.1566 28.3263 47.1185C28.7835 47.0804 29.1169 47.0042 29.4598 46.9661C29.5741 47.0042 29.6503 46.9661 29.6503 46.9661C29.8027 46.928 29.8408 46.928 29.917 46.8899C32.5267 46.2422 34.7174 45.0326 36.4509 43.1086C36.5652 42.9943 36.7938 42.9181 36.9461 42.9181C39.1749 42.9562 41.3751 42.6133 43.5277 42.0894H43.8325C43.0324 45.3373 42.1276 48.4805 40.956 51.576C40.7655 51.9951 40.6131 52.3761 40.4988 52.7094C40.2703 53.2047 40.1274 53.6238 39.975 54.0334C39.8226 54.3381 39.7464 54.5286 39.6702 54.7572C39.4416 55.1668 39.2892 55.5478 39.1368 55.9288C38.9844 56.1954 38.8797 56.4145 38.8035 56.605C38.5749 56.986 38.4225 57.3289 38.2701 57.6241C37.4414 58.91 36.6795 60.1577 35.8127 61.5578C34.0316 59.6719 32.2219 58.0432 32.1076 55.3573ZM53.2428 75.14C51.4331 73.5113 51.2045 71.3587 50.9379 69.1966C49.1186 76.4639 47.0042 83.6074 44.0134 90.4842C43.6039 91.2843 43.261 92.0367 42.9181 92.7987C42.6609 93.2463 42.5085 93.6273 42.3181 94.0464C42.0133 94.6084 41.7466 95.1417 41.4799 95.6275C41.1465 96.1228 40.8417 96.58 40.575 97.0276C40.3083 97.4848 40.0893 97.8277 39.8988 98.1992C39.594 98.5801 39.4035 98.923 39.1749 99.2278C38.3844 100.133 37.6986 100.999 36.9842 101.904C37.0604 100.809 37.0985 99.9041 37.1366 98.9992C36.0413 100.999 34.7174 102.781 32.7839 104.066C31.6885 104.781 30.4789 105.124 29.6884 105.009C30.6694 102.438 31.6504 99.7898 32.6315 97.18C32.7458 96.8371 32.822 96.5419 32.8982 96.2752C33.0125 95.9323 33.0887 95.7037 33.1268 95.4751C33.3173 94.7989 33.4697 94.2274 33.622 93.6654C33.7744 93.2463 33.8125 92.913 33.8792 92.5701C34.1078 91.7319 34.2602 90.9414 34.4126 90.1889C34.6412 88.9793 34.8698 87.8459 35.0603 86.7029C35.2793 85.1599 35.4698 83.7217 35.6222 82.4359C34.565 83.1502 33.3935 83.9122 32.2219 84.6646C32.1838 84.5884 32.1076 84.5503 32.0695 84.4741C32.5267 83.6074 33.0125 82.7787 33.3935 81.8644C35.4698 77.1782 36.6414 72.2254 37.6986 67.2345C37.8129 66.7011 37.8891 66.1392 38.0034 65.6058C38.0034 65.4534 38.0415 65.2629 38.1558 65.1486C38.9463 64.3962 39.7464 63.6818 40.6893 62.8437C40.575 64.701 40.575 66.3963 40.3465 68.0632C39.8988 71.5778 39.4416 75.14 38.7654 78.6546C38.2701 81.15 37.4795 83.5693 36.7938 86.0266C36.6795 86.4457 36.5271 86.7791 36.3842 87.1601C36.0794 87.9506 35.8508 88.6364 35.546 89.465C36.1937 89.0174 36.7176 88.6364 37.2509 88.2554C38.232 87.1982 39.0987 86.1409 40.0512 85.0456C39.8988 86.2552 39.7083 87.4649 39.5178 88.7126C39.1749 89.8079 38.8416 90.789 38.4987 91.77C38.3844 91.9986 38.3463 92.1129 38.3082 92.2653C38.7273 91.9986 39.0987 91.7319 39.4416 91.4367C40.1655 90.5985 40.8036 89.7698 41.4513 88.9793C42.88 86.8172 43.9849 84.6265 44.8135 82.2835C46.0231 78.807 46.8137 75.2162 47.1185 71.5397C47.309 69.0061 47.3471 66.4725 47.5757 63.9771C47.6138 63.4151 48.2519 62.9198 48.7091 62.4722C48.5186 64.0914 48.2138 65.682 49.1567 67.1964C49.9568 66.2535 50.7093 65.2629 51.5093 64.3962C54.2239 61.4054 57.367 58.9481 61.1102 57.2146C63.2628 56.2335 65.3106 55.0144 67.425 53.881C67.6155 53.7667 67.806 53.6619 68.0632 53.6238C61.1483 59.4053 55.4716 66.0249 53.2428 75.14ZM40.1941 82.1692C39.4416 83.8741 38.9463 85.6457 37.5557 86.6648C38.232 84.5122 38.9178 82.2454 39.594 79.9785C39.7083 79.6356 39.7845 79.3308 39.8226 79.026C39.975 78.3498 40.0512 77.8164 40.1274 77.2163C40.3083 76.4639 40.3845 75.8162 40.4988 75.14C40.8036 72.6445 41.1084 70.2919 41.337 67.9489C41.5561 66.0249 41.6323 64.0533 41.7847 62.1293C41.7847 62.015 41.7847 61.8626 41.8609 61.7864C42.9943 60.3863 44.1277 58.9862 45.3755 57.4051C45.3374 58.9862 44.8897 60.272 44.3563 61.5197C43.8325 62.8056 43.2229 64.0152 42.6228 65.3391C43.9468 65.3772 45.004 64.7391 46.2136 64.1676C46.2136 65.8725 46.2898 67.4631 46.2136 69.0442C46.1755 70.5205 45.985 71.9587 45.8326 73.4351C45.7183 74.2637 45.566 75.0638 45.4136 75.8924C45.2326 76.7973 45.0802 77.5973 44.9278 78.3879C44.7754 78.8451 44.6611 79.2546 44.5849 79.6356C44.4325 80.169 44.3182 80.5405 44.2039 80.9595C43.3372 83.9122 42.0514 86.56 40.3083 88.9793C40.8036 86.741 41.2227 84.5122 40.1941 82.1692ZM79.3785 42.88C78.9975 43.7467 78.426 44.5087 77.9402 45.3373C76.9497 46.3184 76.0067 47.2709 75.1019 48.2138C74.2351 48.7757 73.4351 49.3091 72.6826 49.8425C72.6064 49.8425 72.5683 49.9187 72.5683 49.9187C72.5683 50.0235 72.5302 50.0616 72.4921 50.0997C71.9588 50.4045 71.473 50.6712 70.9777 50.9759C70.3015 51.3093 69.73 51.6141 69.1299 51.957C68.1394 52.4523 67.2726 52.8999 66.4059 53.3952C64.6248 54.2619 62.9294 55.0906 61.2245 55.9288C59.9387 56.5669 58.8052 57.2146 57.6337 57.8146C56.6812 58.3861 55.8907 58.91 55.062 59.4434C54.1858 60.1196 53.4333 60.8054 52.6428 61.4435C51.6141 62.5103 50.7093 63.5294 49.6901 64.701C49.8806 63.7199 50.0711 62.8056 50.2616 61.9388C50.4045 61.4435 50.5188 61.0721 50.6331 60.6911C50.7474 60.272 50.8617 59.9767 50.976 59.6719C51.1284 59.3672 51.2426 59.1005 51.3188 58.8338C51.3569 58.6909 51.3569 58.6528 51.395 58.6147L51.4712 58.5766V58.2337C51.395 58.1956 51.3569 58.1575 51.2807 58.1194C51.0141 58.4242 50.7855 58.6909 50.5569 58.9862C50.033 59.5196 49.5758 59.9767 49.1186 60.4625C48.5948 60.8816 48.2138 61.3007 47.7947 61.7102C46.5851 62.5103 45.4517 63.3008 44.3563 64.0533C44.3182 64.0438 44.2897 64.0438 44.2801 64.0533V64.0914C44.2801 64.0914 44.242 64.0628 44.2801 64.0533C44.6611 63.4532 44.9659 62.8818 45.2993 62.2817C45.4517 61.9388 45.566 61.6721 45.6422 61.4054C45.6803 61.2626 45.6803 61.2245 45.7183 61.1864L45.7945 61.1483C45.8707 60.8054 45.9469 60.5006 46.0231 60.1958C46.1374 59.8624 46.2136 59.6339 46.2517 59.3672V58.9481C46.3279 58.6909 46.366 58.5385 46.4041 58.3861V54.9477C46.4041 54.7191 46.4041 54.6048 46.366 54.4143C46.0612 54.8715 45.7564 55.243 45.4898 55.624C44.6992 56.5669 44.0134 57.4432 43.3372 58.348C42.7276 59.0243 42.1657 59.71 41.6323 60.3482C41.0322 60.9578 40.5369 61.4816 40.0512 62.0531C39.4035 62.6532 38.8797 63.1865 38.3082 63.758C37.6986 64.2438 37.2128 64.6629 36.6795 65.12C35.165 66.3678 33.622 67.3488 31.8028 67.8727C31.6123 67.9108 31.5361 67.9108 31.4599 67.9108C31.498 67.9108 31.5361 67.8727 31.5742 67.8346C32.4505 67.1202 33.203 66.3963 33.9935 65.682C34.4507 65.2248 34.8317 64.7772 35.2031 64.3581C35.5841 63.8628 35.927 63.4532 36.2699 63.0341C36.6795 62.5103 37.0223 62.015 37.3652 61.5197C37.7748 60.8054 38.1939 60.1958 38.5749 59.5957C39.0606 58.729 39.4416 57.967 39.8607 57.1765C39.9369 57.1384 39.9369 57.0622 39.9369 57.0622C39.9369 56.9479 39.975 56.9098 40.0131 56.8717C40.8036 54.9858 41.6704 53.1666 42.2038 51.2331C42.7276 49.3472 44.1658 48.2138 45.4517 47.0042C46.8899 45.604 48.4424 44.242 50.0711 43.0705C51.395 42.0894 52.8999 41.3275 54.3382 40.4988C56.8336 39.0225 59.11 37.3176 60.9578 35.0507C60.9959 35.0126 61.034 34.9745 61.1864 34.8983C60.9578 37.5462 59.9006 39.5559 57.4813 40.8417C59.291 41.2132 60.9197 41.137 62.5484 40.5369C64.2152 39.8893 65.3487 38.6796 66.1773 36.9461C66.4059 38.6034 66.2154 39.9654 65.0439 41.2132C67.3107 40.8798 69.1299 40.194 70.3777 38.1939C70.492 38.9844 70.6348 39.7464 70.7872 40.6131C73.1303 40.4988 74.6066 39.2511 75.4448 36.7937C75.9686 37.6605 76.3496 38.3082 76.8068 39.0225C78.0926 38.7558 78.8832 37.8129 79.6737 36.6032C79.8261 37.0604 79.9785 37.3938 80.169 37.8891C80.731 37.47 81.3405 37.0604 82.0168 36.5651C81.6072 37.3938 81.2262 38.1558 80.8834 38.9463C80.3595 40.2702 79.9404 41.5942 79.3785 42.88ZM84.5884 43.3753C84.1789 43.2991 83.836 43.261 83.5312 43.1848C83.3407 43.1086 83.2264 43.0705 83.1216 43.0324C82.8931 42.8419 82.7026 42.7657 82.5121 42.6514C81.5691 41.8228 81.4167 40.8036 81.531 39.7464C81.6072 38.7177 81.8358 37.7367 82.0168 36.7175H82.2073C82.3216 36.908 82.474 37.0985 82.5883 37.289C82.8169 37.5081 82.9692 37.6605 83.1597 37.8129C83.3788 37.9653 83.5693 38.0415 83.7217 38.1177C84.0265 38.232 84.2551 38.3082 84.3694 38.3463C84.4741 38.9463 84.6265 39.5178 84.7408 40.0797C85.0456 40.8798 85.4647 41.5561 85.6171 42.2799C85.76 42.9943 85.3885 43.2991 84.5884 43.3753ZM86.0267 37.3176C86.0648 37.6605 85.9886 37.9272 85.579 37.6986C85.3885 37.6224 85.2361 37.6224 85.1218 37.5843C84.9694 37.47 84.817 37.47 84.7027 37.4319C84.4456 37.3176 84.217 37.2509 83.9884 37.1747C83.7979 37.0604 83.6455 36.9842 83.5312 36.908C82.5121 36.1461 82.474 35.8508 83.2645 34.9364C83.4169 34.7555 83.4931 34.6412 83.5312 34.5269C83.6455 34.3745 83.6455 34.2602 83.6836 34.1459C83.8741 33.8792 83.9884 33.6506 84.1027 33.4315C84.217 33.241 84.217 33.1267 84.2551 33.0125C84.4456 32.5553 84.5503 32.1457 84.7027 31.5361C84.9694 32.441 85.198 33.2029 85.4266 33.9173C86.0648 33.5363 86.6743 33.4315 87.3125 33.7649C87.8459 34.0697 88.0745 34.5269 88.0364 35.1269C87.9602 36.0699 87.1601 36.5651 86.0267 36.3366C85.9505 36.6413 85.9886 36.9842 86.0267 37.3176ZM91.0176 43.8991C90.8271 44.0896 90.7223 44.2039 90.608 44.3563C90.2651 44.623 90.0365 44.8516 89.7699 45.0707C89.4365 45.2993 89.1698 45.4516 88.9031 45.6421C88.5983 45.7564 88.3697 45.8326 88.1888 45.9469C87.9983 46.0231 87.884 46.0612 87.7697 46.0993C87.5411 46.1374 87.3506 46.2041 87.1982 46.2422C86.6743 46.2803 86.2553 46.3946 85.8362 46.3565C85.579 46.3184 85.2361 46.166 85.1218 45.9469C85.0456 45.7564 85.198 45.4135 85.3504 45.185C85.6171 44.8135 85.9886 44.4706 86.2934 44.1277C86.9791 42.9943 86.9791 41.8989 86.2552 40.7655C86.0648 40.4607 85.8743 40.2702 85.76 40.0416C85.6171 39.7464 85.3504 39.213 85.4647 39.0225C85.6552 38.7177 86.141 38.6796 86.5219 38.5367C86.7505 38.6034 86.9029 38.6034 87.0458 38.6034C87.2744 38.6034 87.3506 38.5653 87.4649 38.5653C87.884 38.4987 88.1888 38.4225 88.484 38.3463C88.7888 38.1558 89.0174 38.0034 89.246 37.8129C89.5794 37.3938 89.846 36.9842 90.1127 36.5651C90.227 36.908 90.3413 37.2509 90.4556 37.5462C90.6461 37.8129 90.7604 37.9653 90.9033 38.1177C91.7796 38.4606 92.6082 38.7177 93.5511 39.0225C93.1035 40.6893 92.2653 42.4228 91.0176 43.8991ZM97.18 35.8508C96.3133 37.6224 94.3893 38.2701 92.5701 37.851C91.4748 37.6224 91.0938 36.7175 90.789 35.7746C90.608 35.2031 90.2651 34.7174 90.0365 34.1459C89.8079 33.6887 89.6175 33.2029 89.4746 32.7077C89.3222 32.2219 89.2841 31.7266 89.1317 31.2313C88.9793 30.7456 88.7507 30.2503 88.6364 29.9074C87.8078 29.9074 87.0839 29.9836 86.4077 29.9074C85.7219 29.8312 85.0456 29.6883 84.3313 29.536C84.0265 31.9933 83.2264 34.2221 81.3786 36.0032C81.0358 36.2604 80.7691 36.4889 80.55 36.6794C80.2452 36.2223 80.0166 35.8127 79.7499 35.3936C79.188 36.1461 78.6165 36.7937 78.0926 37.47C77.7497 37.7367 77.5212 37.9272 77.2926 38.1177C76.5401 37.289 75.8543 36.4889 75.1781 35.6984C74.9876 35.9651 74.8733 36.2604 74.759 36.5651C74.378 37.1366 74.1208 37.6224 73.8161 38.1177C73.2446 39.0606 72.4159 39.4797 71.3968 39.7845C71.5111 38.4606 70.9777 37.47 70.3777 36.4509C70.111 36.6794 69.8443 37.0604 69.5776 37.3938C69.2442 37.8129 69.0156 38.1939 68.7489 38.5653C68.0632 39.1749 67.425 39.7464 66.8154 40.2702C66.7773 40.2321 66.7107 40.1559 66.6726 40.1178C66.8154 39.594 67.044 39.0225 67.1202 38.4606C67.2726 37.47 66.9297 36.6032 66.2154 35.8889C66.1773 35.8127 65.9487 35.8889 65.8344 35.8889C65.6439 36.108 65.5677 36.2604 65.682 36.3366C64.4343 38.6796 61.9769 40.3083 59.5577 40.2702C61.7483 38.7558 62.1674 36.4509 62.5103 34.1078C62.6246 33.3553 62.8913 32.6315 63.1104 31.879C63.2628 31.5742 63.339 31.3075 63.4533 31.0789C63.6818 30.5932 63.9104 30.1741 64.1009 29.755C64.4343 29.2312 64.6629 28.7359 64.9296 28.2882C65.3106 27.7167 65.5677 27.2596 65.8725 26.7738C66.3297 26.1261 66.7107 25.5642 67.0821 24.9927C67.5774 24.3926 67.9584 23.8593 68.368 23.2973C68.6728 22.9925 68.8632 22.6877 69.0918 22.421C69.4633 22.0115 69.7681 21.6686 70.0729 21.2876C71.092 20.1923 72.035 19.1731 72.9874 18.154C73.9304 17.3539 74.7971 16.5634 75.6638 15.7728C75.8162 15.6585 76.0067 15.5823 76.1972 15.5823C79.4832 15.468 82.7407 15.6966 85.8743 16.9444C88.9031 18.154 91.2843 20.1542 93.1035 22.8782C94.9894 25.7547 96.6181 28.774 97.4848 32.1457C97.7896 33.4315 97.7515 34.6412 97.18 35.8508Z" fill="#54634F"/>
<path d="M88.0363 35.1269C87.9601 36.0699 87.16 36.5651 86.0266 36.3366C85.9504 36.6413 85.9885 36.9842 86.0266 37.3176C86.0647 37.6605 85.9885 37.9272 85.579 37.6986C85.3885 37.6224 85.2361 37.6224 85.1218 37.5843C84.9694 37.47 84.817 37.47 84.7027 37.4319C84.4455 37.3176 84.2169 37.2509 83.9883 37.1747C83.7978 37.0604 83.6455 36.9842 83.5312 36.908C82.512 36.1461 82.4739 35.8508 83.2645 34.9364C83.4169 34.7555 83.4931 34.6412 83.5312 34.5269C83.6455 34.3745 83.6455 34.2602 83.6836 34.1459C83.874 33.8792 83.9883 33.6506 84.1026 33.4315C84.2169 33.241 84.2169 33.1267 84.255 33.0125C84.4455 32.5553 84.5503 32.1457 84.7027 31.5361C84.9694 32.441 85.198 33.2029 85.4266 33.9173C86.0647 33.5363 86.6743 33.4315 87.3124 33.7649C87.8458 34.0697 88.0744 34.5269 88.0363 35.1269Z" fill="#54634F"/>
<path d="M44.1277 39.8893C44.1277 40.8417 44.0134 40.956 43.1086 41.0703C42.1657 41.1751 41.1846 41.2894 40.2322 41.4037C39.2892 41.518 38.4606 41.5942 37.5938 41.5942C36.9843 41.5561 36.5271 41.5942 36.0413 41.5942C35.6222 41.9752 35.3174 42.28 35.0222 42.6133C34.5269 43.0324 34.1459 43.3753 33.7363 43.7468C33.0125 44.1277 32.4505 44.4706 31.8409 44.8516C31.2028 45.0707 30.6694 45.2612 30.136 45.4517C29.3836 45.6422 28.7835 45.8327 28.1359 46.0232C26.4309 46.2422 25.2213 45.5279 24.0498 44.623C22.8782 43.7468 21.6305 42.9562 20.3828 42.1657C19.5541 41.5942 19.2875 40.7655 19.1351 39.8512C19.097 39.1749 19.0208 38.5654 18.9827 38.0034C19.0208 37.1748 19.0208 36.489 19.0589 35.8127C19.2875 35.0508 19.4779 34.3364 19.6303 33.6506C19.9351 33.0125 19.6303 32.5553 19.3256 32.1076C19.1732 31.9171 19.097 31.6505 18.9827 31.4219C18.9065 30.9742 18.6874 30.4408 18.8303 30.2884C19.2494 29.7931 19.8589 29.4598 20.3828 29.0788C20.459 29.0407 20.7638 29.2693 20.8781 29.4217C22.6497 31.5362 24.6594 33.3935 26.8881 34.9746C27.9835 35.7746 29.1169 36.4128 30.2503 37.1367C31.7266 37.7748 33.1268 38.3844 34.5269 38.9844C35.927 39.2892 37.2128 39.5559 38.5368 39.8226C40.4607 39.8893 42.3181 39.8893 44.1277 39.8893Z" fill="#54634F"/>
<path d="M85.5695 33.9554C86.1028 33.4982 86.7029 33.3839 87.3506 33.7268C87.8839 34.0316 88.103 34.4793 88.0649 35.0889C87.9887 36.0318 87.2363 36.489 85.9885 36.2604C85.76 36.108 85.6457 36.0318 85.4933 35.8794C85.379 35.5746 85.3028 35.3079 85.1885 35.0127C85.3409 34.6317 85.4552 34.2983 85.5695 33.9554ZM87.3887 35.546C87.2363 35.2413 87.122 34.7936 86.8934 34.7174C86.6267 34.6412 86.1409 34.8698 86.0266 35.0984C85.9123 35.2889 86.0647 35.8127 86.2933 35.9651C86.6743 36.308 87.122 36.1937 87.3887 35.546Z" fill="#54634F"/>
<path d="M41.5942 20.9067C41.5942 20.9067 41.7085 20.7924 41.7847 20.7924C43.642 20.7924 45.4898 20.8305 47.3471 20.8686C45.4898 20.9067 43.6039 20.9067 41.6038 20.9067H41.5942Z" fill="#54634F"/>
<path d="M45.8325 5.93385C45.642 5.97195 45.4515 5.93385 45.1943 5.89575C45.3467 5.89575 45.5753 5.89575 45.8325 5.93385Z" fill="#54634F"/>
<path d="M28.2882 47.1565C28.212 47.1946 28.0596 47.2327 27.8691 47.2708C27.9834 47.2327 28.0977 47.1946 28.2882 47.1565Z" fill="#54634F"/>
<path d="M31.5362 67.9107C31.46 67.9488 31.3838 67.9488 31.3076 67.9488C31.3457 67.9107 31.3838 67.8726 31.46 67.8726C31.46 67.8345 31.4981 67.9107 31.5362 67.9107Z" fill="#54634F"/>
<path d="M32.0313 13.3059C32.0313 13.3059 32.0313 13.3821 31.9551 13.4202C31.9551 13.3821 31.9932 13.344 32.0313 13.3059Z" fill="#54634F"/>
<path d="M49.0044 42.4989C49.0044 42.4989 49.0044 42.4227 49.0806 42.3846C49.1187 42.4227 49.0806 42.4608 49.0044 42.4989Z" fill="#54634F"/>
<path d="M45.642 61.1482C45.642 61.1482 45.642 61.2244 45.6039 61.2625C45.5658 61.2625 45.6039 61.2244 45.642 61.1482Z" fill="#54634F"/>
<path d="M39.9273 56.8717C39.9273 56.8717 39.9273 56.9479 39.8511 56.986C39.813 56.9479 39.8511 56.9098 39.9273 56.8717Z" fill="#54634F"/>
<path d="M29.6122 46.9661V47.0423C29.6122 47.0423 29.536 47.0423 29.536 47.0042C29.4979 47.0042 29.5741 46.9661 29.6122 46.9661Z" fill="#54634F"/>
<path d="M39.4036 35.2412C39.4036 35.2412 39.4798 35.2412 39.5179 35.2793C39.5179 35.3174 39.4798 35.3174 39.4798 35.3174C39.4798 35.3174 39.4036 35.2793 39.4036 35.2412Z" fill="#54634F"/>
<path d="M51.3854 58.5765C51.3854 58.5765 51.3854 58.6527 51.3473 58.6908C51.3092 58.6527 51.3092 58.6146 51.3854 58.5765Z" fill="#54634F"/>
<path d="M72.3779 50.0996C72.3779 50.0996 72.3779 50.0235 72.4541 49.9854C72.4541 50.0235 72.4541 50.0615 72.3779 50.0996Z" fill="#54634F"/>
<path d="M87.3887 35.6222C87.122 36.1936 86.6743 36.2984 86.2553 36.0032C86.0267 35.8508 85.8743 35.3269 85.9886 35.1364C86.141 34.9078 86.6267 34.6792 86.8553 34.7554C87.122 34.7935 87.2363 35.2507 87.3887 35.6222Z" fill="#54634F"/>
<path d="M15.7729 59.4434V59.7005L15.5443 63.0342L14.1061 67.6155L13.7251 69.6538V71.8254L14.1728 73.416L14.7442 74.2161L15.3252 74.6257L16.0491 74.8542L16.7825 74.8923L17.8397 74.7018L19.3637 74.1304L20.8305 73.4065L22.0496 72.7112L23.164 72.0349L24.7165 71.0158L26.0119 70.0729L26.8882 69.3299L27.9073 68.4823L15.7729 59.4434Z" fill="#54634F"/>
</g>
<defs>
<clipPath id="clip0_1876_192">
<rect width="101.571" height="108" fill="white"/>
</clipPath>
</defs>
</svg>
