<svg width="48" height="48" viewBox="0 0 48 48" fill="none" xmlns="http://www.w3.org/2000/svg">
<rect width="48" height="48" rx="10" fill="#F1F1F1"/>
<path d="M33.1954 29.999H31.0065C30.1783 29.999 29.9288 29.3216 28.4443 27.8212C27.1469 26.5584 26.5989 26.4014 26.2707 26.4014C25.8168 26.4014 25.693 26.5274 25.693 27.1583V29.1471C25.693 29.685 25.5203 30 24.1288 30C22.7789 29.9084 21.4699 29.4942 20.3095 28.7916C19.1491 28.0889 18.1707 27.1179 17.4546 25.9584C15.7546 23.8214 14.5717 21.3131 14 18.6332C14 18.3018 14.1248 18.0013 14.7504 18.0013H16.9384C17.5007 18.0013 17.7032 18.2543 17.9239 18.8387C18.9862 21.9964 20.7989 24.7431 21.535 24.7431C21.8171 24.7431 21.9399 24.6171 21.9399 23.9066V20.654C21.8469 19.1702 21.0667 19.0451 21.0667 18.5082C21.0765 18.3665 21.1407 18.2344 21.2455 18.1397C21.3503 18.0451 21.4876 17.9954 21.6281 18.0013H25.0674C25.5376 18.0013 25.693 18.2378 25.693 18.8058V23.1962C25.693 23.6702 25.8946 23.8272 26.0366 23.8272C26.3187 23.8272 26.5356 23.6702 27.0528 23.1487C28.1615 21.7831 29.0673 20.2616 29.7417 18.6323C29.8107 18.4366 29.9412 18.2692 30.1133 18.1554C30.2853 18.0417 30.4895 17.9879 30.6946 18.0023H32.8835C33.5399 18.0023 33.679 18.3338 33.5399 18.8067C32.7438 20.6079 31.7587 22.3176 30.6015 23.9066C30.3654 24.2701 30.2714 24.4591 30.6015 24.8855C30.8184 25.217 31.5861 25.8644 32.1014 26.4799C32.8518 27.2358 33.4746 28.1101 33.9458 29.0676C34.1339 29.684 33.8201 29.999 33.1954 29.999Z" fill="#0077FF"/>
</svg>
